<svg width="93" height="72" viewBox="0 0 93 72" fill="none" xmlns="http://www.w3.org/2000/svg">
<path fill-rule="evenodd" clip-rule="evenodd" d="M45.8692 11.4795C54.4355 11.4792 61.339 18.3766 61.3451 26.9421C61.3514 35.4617 54.4284 42.4106 45.9309 42.4144C37.3335 42.4182 30.4291 35.5128 30.434 26.9151C30.4387 18.3781 37.3368 11.4799 45.8692 11.4795ZM52.7934 22.0032C53.14 22.2002 53.3353 22.3045 53.5239 22.4195C53.8307 22.6067 54.1095 22.6911 54.347 22.3085C54.5993 21.9021 54.347 21.7404 54.0381 21.565C50.9414 19.8082 47.6527 18.9062 44.0674 19.2949C41.8042 19.5403 39.7128 20.2806 37.7775 21.4689C37.4943 21.6429 37.1258 21.7995 37.4146 22.2574C37.708 22.7226 38.0114 22.4971 38.3282 22.2941C38.5039 22.1815 38.6929 22.09 38.9873 21.9275C38.8695 22.2159 38.8067 22.3791 38.7372 22.5392C37.4286 25.5528 36.1202 28.5663 34.8097 31.5789C34.3607 32.611 34.5283 33.1693 35.5042 33.7537C35.7957 33.9283 36.1112 34.0774 36.4335 34.1841C38.4262 34.8437 40.4369 34.8275 42.4535 34.2985C42.9236 34.1752 43.3643 33.9728 43.7751 33.7134C44.6605 33.1546 44.8232 32.5798 44.404 31.6173C42.9957 28.384 41.6026 25.1438 40.1775 21.9178C39.9821 21.4757 40.1016 21.349 40.5026 21.1941C44.0771 19.813 47.6308 19.8965 51.1888 21.2633C51.6766 21.4507 51.7095 21.6491 51.5121 22.0958C50.1436 25.192 48.8016 28.2998 47.4505 31.4038C46.8964 32.677 47.1172 33.3202 48.3744 33.9238C49.9328 34.672 51.5957 34.7729 53.2839 34.619C54.3549 34.5214 55.4005 34.3076 56.3287 33.719C57.2182 33.1551 57.3897 32.5788 56.9735 31.6264C56.3038 30.0938 55.6373 28.5597 54.971 27.0257C54.267 25.4041 53.5646 23.782 52.7934 22.0032Z" fill="#02A750"/>
<path fill-rule="evenodd" clip-rule="evenodd" d="M45.8326 53.8636C38.1032 53.7594 31.5206 50.9452 26.2175 45.3257C21.95 40.8037 19.5777 35.3782 19.0574 29.1651C19.0103 28.6028 19.0082 28.0369 18.9585 27.4749C18.9319 27.1738 19.0339 27.0978 19.3257 27.1048C20.1113 27.1239 20.8981 27.1245 21.6837 27.1033C22.0589 27.0932 21.9844 27.3347 21.991 27.5456C22.0575 29.6727 22.3619 31.7661 22.984 33.8005C24.142 37.5877 26.0997 40.9089 28.8936 43.7261C31.9583 46.8166 35.5861 48.9558 39.8 50.0455C44.298 51.2086 48.7808 51.1166 53.2133 49.6702C58.6337 47.9016 62.9038 44.6133 65.9881 39.8303C68.711 35.6074 69.9499 30.9597 69.7366 25.9288C69.4843 19.9744 67.2856 14.8147 63.2149 10.5126C59.1724 6.24017 54.1682 3.77539 48.287 3.18297C43.4135 2.69205 38.8134 3.60715 34.5062 5.94632C34.1744 6.12656 33.9725 6.12619 33.7749 5.7828C33.4333 5.18905 33.0843 4.59735 32.7012 4.02988C32.4693 3.68661 32.5585 3.5283 32.8915 3.3431C34.9311 2.20864 37.0869 1.36197 39.3473 0.806129C43.5305 -0.222467 47.7384 -0.275035 51.9377 0.696268C57.1647 1.90534 61.66 4.44764 65.3496 8.34266C69.9371 13.1856 72.4347 18.9558 72.7621 25.6315C73.0819 32.1496 71.2721 38.0484 67.3207 43.2237C63.0701 48.791 57.4463 52.2042 50.5354 53.4627C48.9813 53.746 47.4162 53.8631 45.8326 53.8636Z" fill="#BAD333"/>
<path fill-rule="evenodd" clip-rule="evenodd" d="M45.9434 6.02557C53.6306 6.2855 59.6029 9.58956 63.7797 16.0963C64.0115 16.4574 63.9714 16.6327 63.5979 16.8377C63.0691 17.1279 62.5512 17.4499 62.0709 17.8136C61.6372 18.1418 61.4101 18.1179 61.1112 17.6202C59.6416 15.1736 57.6615 13.2215 55.2413 11.709C48.5935 7.55465 39.687 8.37007 33.9079 13.6959C29.7749 17.5048 27.8175 22.245 28.0384 27.8557C28.3698 36.2802 34.9807 43.582 43.3554 44.6044C50.9702 45.5342 56.8968 42.6442 61.1191 36.2536C61.319 35.9509 61.4449 35.8733 61.7622 36.1013C62.3346 36.513 62.9287 36.8982 63.5371 37.2544C63.8991 37.4664 63.8674 37.656 63.6671 37.9659C60.3305 43.1291 55.6797 46.4046 49.6212 47.5003C40.2464 49.1958 31.2135 44.5446 27.0073 35.9716C22.156 26.0839 26.2264 13.6485 35.9908 8.51045C39.1026 6.87308 42.4023 6.01127 45.9434 6.02557Z" fill="#74BC46"/>
<path fill-rule="evenodd" clip-rule="evenodd" d="M52.7935 22.0039C53.5647 23.7827 54.2671 25.4047 54.9712 27.0262C55.6375 28.5603 56.3041 30.0943 56.9738 31.6269C57.39 32.5793 57.2184 33.1556 56.3289 33.7195C55.4007 34.308 54.3552 34.5219 53.2842 34.6196C51.5959 34.7734 49.933 34.6725 48.3746 33.9243C47.1174 33.3208 46.8966 32.6776 47.4508 31.4043C48.8018 28.3003 50.1439 25.1925 51.5124 22.0963C51.7098 21.6496 51.6768 21.4512 51.1891 21.2638C47.631 19.897 44.0774 19.8134 40.5028 21.1946C40.1018 21.3494 39.9823 21.4761 40.1777 21.9184C41.6029 25.1443 42.9958 28.3845 44.4042 31.6178C44.8233 32.5802 44.6608 33.155 43.7754 33.7139C43.3645 33.9734 42.9238 34.1758 42.4538 34.2991C40.4371 34.8279 38.4263 34.8442 36.4337 34.1846C36.1113 34.0779 35.796 33.9289 35.5044 33.7542C34.5285 33.1698 34.3609 32.6115 34.8099 31.5794C36.1205 28.5668 37.4289 25.5533 38.7374 22.5397C38.8069 22.3796 38.8698 22.2164 38.9875 21.928C38.6932 22.0906 38.5041 22.1822 38.3285 22.2946C38.0115 22.4977 37.7082 22.7231 37.4148 22.2579C37.1261 21.8001 37.4945 21.6434 37.7777 21.4695C39.7131 20.281 41.8044 19.5408 44.0676 19.2954C47.6529 18.9067 50.9415 19.8087 54.0383 21.5655C54.3473 21.7408 54.5996 21.9025 54.3473 22.309C54.1098 22.6916 53.8309 22.6072 53.5241 22.4201C53.3354 22.3051 53.1402 22.2007 52.7935 22.0039ZM39.6454 22.9177C39.564 22.9951 39.5227 23.017 39.508 23.0507C38.3422 25.725 37.1826 28.4021 36.0098 31.0734C35.8339 31.4739 36.0501 31.4552 36.3276 31.4544C38.3016 31.4497 40.2757 31.4517 42.2498 31.4514C42.5865 31.4514 42.9232 31.4514 43.3503 31.4514C42.0943 28.5587 40.8749 25.7499 39.6454 22.9177ZM52.2113 22.9282C52.1296 23.0037 52.0688 23.0344 52.0478 23.0825C50.8936 25.7398 49.7462 28.3999 48.5872 31.0551C48.4286 31.4185 48.5772 31.4568 48.8902 31.4558C51.0659 31.4482 53.2415 31.443 55.4169 31.4587C55.8888 31.4621 55.8483 31.2939 55.6978 30.9609C55.3006 30.0808 54.9321 29.1877 54.5478 28.3019C53.7746 26.5191 52.9982 24.7376 52.2113 22.9282Z" fill="#F3FAF6"/>
<path fill-rule="evenodd" clip-rule="evenodd" d="M39.6453 22.917C40.875 25.7493 42.0942 28.5579 43.3502 31.4507C42.9231 31.4507 42.5863 31.4507 42.2496 31.4507C40.2756 31.451 38.3015 31.4491 36.3274 31.4538C36.0499 31.4545 35.8337 31.4732 36.0096 31.0727C37.1825 28.4013 38.342 25.7243 39.5078 23.05C39.5225 23.0164 39.5638 22.9944 39.6453 22.917Z" fill="#04A650"/>
<path fill-rule="evenodd" clip-rule="evenodd" d="M52.2112 22.9277C52.9981 24.7371 53.7743 26.5186 54.5477 28.3015C54.9319 29.1872 55.3005 30.0804 55.6977 30.9604C55.848 31.2934 55.8886 31.4617 55.4168 31.4582C53.2414 31.4424 51.0657 31.4477 48.8901 31.4553C48.5771 31.4564 48.4285 31.418 48.587 31.0546C49.7461 28.3994 50.8935 25.7393 52.0477 23.082C52.0687 23.034 52.1295 23.0032 52.2112 22.9277Z" fill="#04A650"/>
<path d="M1.55795 66.0601V69.2733H0V60.5221H3.06721C3.99224 60.5221 4.71035 60.7371 5.22155 61.1671C5.73275 61.5972 5.98835 62.222 5.98835 63.0415C5.98835 63.9585 5.70841 64.6928 5.14852 65.2446C4.59675 65.7882 3.85024 66.0601 2.90898 66.0601H1.55795ZM1.55795 64.8551H2.73858C3.28223 64.8551 3.69201 64.7131 3.96789 64.4291C4.25189 64.137 4.39389 63.715 4.39389 63.1633C4.39389 62.1977 3.88269 61.7149 2.86029 61.7149H1.55795V64.8551Z" fill="white"/>
<path d="M11.4809 66.2913H8.01205C8.02016 66.8999 8.15811 67.3665 8.42588 67.691C8.69365 68.0075 9.06285 68.1657 9.53348 68.1657C10.1096 68.1657 10.6898 68.0034 11.274 67.6789L11.3592 68.9569C10.8074 69.2571 10.1461 69.4072 9.37525 69.4072C7.43593 69.4072 6.46627 68.259 6.46627 65.9627C6.46627 64.8429 6.70565 64.0153 7.18439 63.4797C7.67125 62.9361 8.30822 62.6642 9.09531 62.6642C10.6857 62.6642 11.4809 63.6785 11.4809 65.7071V66.2913ZM10.0447 65.342C10.0447 64.3033 9.72011 63.784 9.07096 63.784C8.72205 63.784 8.45833 63.9301 8.27982 64.2222C8.10942 64.5143 8.02422 64.8876 8.02422 65.342H10.0447Z" fill="white"/>
<path d="M16.3161 63.1998L16.377 62.7859H17.7402V69.176C17.7402 71.0585 16.8719 71.9997 15.1355 71.9997C14.2673 71.9997 13.5086 71.8415 12.8594 71.5251L13.0907 70.1984C13.3422 70.3525 13.6465 70.4783 14.0035 70.5757C14.3687 70.6812 14.7054 70.7339 15.0138 70.7339C15.8495 70.7339 16.2674 70.1902 16.2674 69.1029V68.7134C15.8698 69.1435 15.3586 69.3585 14.7338 69.3585C14.0279 69.3585 13.4639 69.0867 13.042 68.543C12.6282 67.9913 12.4213 67.1717 12.4213 66.0844C12.4213 65.484 12.4983 64.9362 12.6525 64.4413C12.8148 63.9463 13.0826 63.5284 13.4558 63.1876C13.8372 62.8387 14.2997 62.6642 14.8434 62.6642C15.387 62.6642 15.8779 62.8427 16.3161 63.1998ZM16.2187 67.6545V64.2587C15.8374 63.9828 15.4966 63.8449 15.1963 63.8449C14.4011 63.8449 14.0035 64.5995 14.0035 66.1088C14.0035 67.472 14.389 68.1536 15.1598 68.1536C15.5331 68.1536 15.8861 67.9872 16.2187 67.6545Z" fill="white"/>
<path d="M19.6985 64.0883L19.516 62.9563C20.1002 62.7616 20.7696 62.6642 21.5243 62.6642C22.4168 62.6642 23.0497 62.8671 23.423 63.2728C23.7963 63.6704 23.9829 64.4007 23.9829 65.4637V67.7519C23.9829 68.0927 24.1046 68.2631 24.348 68.2631C24.4616 68.2631 24.5915 68.2347 24.7375 68.1779L24.8471 69.2003C24.5387 69.3301 24.1939 69.395 23.8125 69.395C23.2283 69.395 22.8712 69.1476 22.7414 68.6526C22.214 69.1476 21.6013 69.395 20.9035 69.395C20.2787 69.395 19.8 69.2044 19.4673 68.823C19.1427 68.4416 18.9804 67.9548 18.9804 67.3624C18.9804 65.8613 19.8162 65.1107 21.4877 65.1107C21.8204 65.1107 22.1653 65.1513 22.5223 65.2324V64.9525C22.5223 64.1978 22.0963 63.8205 21.2443 63.8205C20.7818 63.8205 20.2665 63.9098 19.6985 64.0883ZM22.5223 67.691V66.194C22.2464 66.0966 21.9868 66.0479 21.7433 66.0479C20.9076 66.0479 20.4897 66.4414 20.4897 67.2285C20.4897 67.545 20.5627 67.7965 20.7088 67.9832C20.8548 68.1617 21.0699 68.2509 21.3539 68.2509C21.792 68.2509 22.1815 68.0643 22.5223 67.691Z" fill="white"/>
<path d="M29.1866 63.0781V60.5221H30.708V69.2733H29.3448L29.2961 68.7013C28.8498 69.1638 28.3183 69.395 27.7017 69.395C26.9957 69.395 26.4318 69.1151 26.0098 68.5552C25.596 67.9953 25.3891 67.1717 25.3891 66.0844C25.3891 65.484 25.4702 64.9362 25.6325 64.4413C25.7948 63.9382 26.0666 63.5162 26.448 63.1754C26.8294 62.8346 27.3 62.6642 27.8599 62.6642C28.3467 62.6642 28.789 62.8022 29.1866 63.0781ZM29.1987 67.7032V64.2344C28.8174 63.9585 28.4806 63.8205 28.1885 63.8205C27.3771 63.8205 26.9714 64.5833 26.9714 66.1088C26.9714 66.7904 27.0728 67.3097 27.2757 67.6667C27.4785 68.0237 27.7666 68.2022 28.1398 68.2022C28.5131 68.2022 28.8661 68.0359 29.1987 67.7032Z" fill="white"/>
<path d="M32.6664 64.0883L32.4838 62.9563C33.068 62.7616 33.7375 62.6642 34.4921 62.6642C35.3847 62.6642 36.0176 62.8671 36.3908 63.2728C36.7641 63.6704 36.9507 64.4007 36.9507 65.4637V67.7519C36.9507 68.0927 37.0724 68.2631 37.3159 68.2631C37.4295 68.2631 37.5593 68.2347 37.7054 68.1779L37.8149 69.2003C37.5065 69.3301 37.1617 69.395 36.7803 69.395C36.1961 69.395 35.8391 69.1476 35.7092 68.6526C35.1818 69.1476 34.5692 69.395 33.8713 69.395C33.2465 69.395 32.7678 69.2044 32.4351 68.823C32.1105 68.4416 31.9483 67.9548 31.9483 67.3624C31.9483 65.8613 32.784 65.1107 34.4556 65.1107C34.7883 65.1107 35.1331 65.1513 35.4901 65.2324V64.9525C35.4901 64.1978 35.0641 63.8205 34.2121 63.8205C33.7496 63.8205 33.2344 63.9098 32.6664 64.0883ZM35.4901 67.691V66.194C35.2143 66.0966 34.9546 66.0479 34.7112 66.0479C33.8754 66.0479 33.4575 66.4414 33.4575 67.2285C33.4575 67.545 33.5305 67.7965 33.6766 67.9832C33.8227 68.1617 34.0377 68.2509 34.3217 68.2509C34.7599 68.2509 35.1493 68.0643 35.4901 67.691Z" fill="white"/>
<path d="M38.8044 62.7859H40.3258V69.2733H38.8044V62.7859ZM38.6827 61.0941C38.6827 60.8182 38.7638 60.6032 38.9261 60.449C39.0884 60.2949 39.2994 60.2178 39.559 60.2178C39.843 60.2178 40.0621 60.2949 40.2163 60.449C40.3705 60.5951 40.4475 60.8101 40.4475 61.0941C40.4475 61.3781 40.3623 61.5972 40.1919 61.7514C40.0297 61.8974 39.8187 61.9705 39.559 61.9705C39.2913 61.9705 39.0762 61.8934 38.9139 61.7392C38.7598 61.5769 38.6827 61.3619 38.6827 61.0941Z" fill="white"/>
<path d="M42.2823 64.0883L42.0997 62.9563C42.6839 62.7616 43.3534 62.6642 44.108 62.6642C45.0006 62.6642 45.6335 62.8671 46.0068 63.2728C46.38 63.6704 46.5666 64.4007 46.5666 65.4637V67.7519C46.5666 68.0927 46.6884 68.2631 46.9318 68.2631C47.0454 68.2631 47.1752 68.2347 47.3213 68.1779L47.4308 69.2003C47.1225 69.3301 46.7776 69.395 46.3962 69.395C45.812 69.395 45.455 69.1476 45.3252 68.6526C44.7977 69.1476 44.1851 69.395 43.4873 69.395C42.8625 69.395 42.3837 69.2044 42.051 68.823C41.7265 68.4416 41.5642 67.9548 41.5642 67.3624C41.5642 65.8613 42.3999 65.1107 44.0715 65.1107C44.4042 65.1107 44.749 65.1513 45.1061 65.2324V64.9525C45.1061 64.1978 44.6801 63.8205 43.8281 63.8205C43.3656 63.8205 42.8503 63.9098 42.2823 64.0883ZM45.1061 67.691V66.194C44.8302 66.0966 44.5705 66.0479 44.3271 66.0479C43.4913 66.0479 43.0734 66.4414 43.0734 67.2285C43.0734 67.545 43.1465 67.7965 43.2925 67.9832C43.4386 68.1617 43.6536 68.2509 43.9376 68.2509C44.3758 68.2509 44.7653 68.0643 45.1061 67.691Z" fill="white"/>
<path d="M49.8079 62.7859L49.8565 63.431C50.4408 62.9198 51.0818 62.6642 51.7796 62.6642C52.8264 62.6642 53.4187 63.1146 53.5567 64.0153C53.5891 64.2181 53.6054 64.49 53.6054 64.8308V69.2733H52.0839V65.0255C52.0839 64.774 52.0799 64.6076 52.0718 64.5265C52.0231 64.1289 51.7553 63.9301 51.2684 63.9301C50.8465 63.9301 50.4083 64.1329 49.9539 64.5386V69.2733H48.4203V62.7859H49.8079Z" fill="white"/>
<path d="M58.2304 69.2733V60.5221H61.0298C62.1253 60.5221 62.9813 60.8263 63.598 61.4349C64.2147 62.0435 64.523 63.0699 64.523 64.5143C64.523 65.2608 64.4541 65.9181 64.3161 66.4861C64.1863 67.046 64.0078 67.5004 63.7806 67.8493C63.5615 68.1982 63.2856 68.4822 62.9529 68.7013C62.6202 68.9204 62.2754 69.0705 61.9184 69.1516C61.5613 69.2328 61.1597 69.2733 60.7134 69.2733H58.2304ZM59.7884 61.7027V68.0927H60.8108C61.5167 68.0927 62.036 67.829 62.3687 67.3016C62.7095 66.7741 62.8799 65.91 62.8799 64.709C62.8799 63.6298 62.7257 62.859 62.4174 62.3965C62.109 61.9339 61.6262 61.7027 60.969 61.7027H59.7884Z" fill="white"/>
<path d="M65.9287 62.7859H67.4501V69.2733H65.9287V62.7859ZM65.8069 61.0941C65.8069 60.8182 65.8881 60.6032 66.0504 60.449C66.2127 60.2949 66.4236 60.2178 66.6833 60.2178C66.9673 60.2178 67.1864 60.2949 67.3406 60.449C67.4947 60.5951 67.5718 60.8101 67.5718 61.0941C67.5718 61.3781 67.4866 61.5972 67.3162 61.7514C67.1539 61.8974 66.9429 61.9705 66.6833 61.9705C66.4155 61.9705 66.2005 61.8934 66.0382 61.7392C65.884 61.5769 65.8069 61.3619 65.8069 61.0941Z" fill="white"/>
<path d="M72.6685 63.1998L72.7294 62.7859H74.0926V69.176C74.0926 71.0585 73.2243 71.9997 71.4879 71.9997C70.6197 71.9997 69.861 71.8415 69.2118 71.5251L69.4431 70.1984C69.6946 70.3525 69.9989 70.4783 70.3559 70.5757C70.7211 70.6812 71.0578 70.7339 71.3662 70.7339C72.2019 70.7339 72.6198 70.1902 72.6198 69.1029V68.7134C72.2222 69.1435 71.711 69.3585 71.0862 69.3585C70.3803 69.3585 69.8163 69.0867 69.3944 68.543C68.9806 67.9913 68.7736 67.1717 68.7736 66.0844C68.7736 65.484 68.8507 64.9362 69.0049 64.4413C69.1672 63.9463 69.435 63.5284 69.8082 63.1876C70.1896 62.8387 70.6521 62.6642 71.1958 62.6642C71.7394 62.6642 72.2303 62.8427 72.6685 63.1998ZM72.5711 67.6545V64.2587C72.1898 63.9828 71.849 63.8449 71.5487 63.8449C70.7535 63.8449 70.3559 64.5995 70.3559 66.1088C70.3559 67.472 70.7414 68.1536 71.5122 68.1536C71.8855 68.1536 72.2384 67.9872 72.5711 67.6545Z" fill="white"/>
<path d="M75.7466 62.7859H77.2681V69.2733H75.7466V62.7859ZM75.6249 61.0941C75.6249 60.8182 75.7061 60.6032 75.8684 60.449C76.0306 60.2949 76.2416 60.2178 76.5013 60.2178C76.7853 60.2178 77.0044 60.2949 77.1585 60.449C77.3127 60.5951 77.3898 60.8101 77.3898 61.0941C77.3898 61.3781 77.3046 61.5972 77.1342 61.7514C76.9719 61.8974 76.7609 61.9705 76.5013 61.9705C76.2335 61.9705 76.0185 61.8934 75.8562 61.7392C75.702 61.5769 75.6249 61.3619 75.6249 61.0941Z" fill="white"/>
<path d="M82.024 63.8814H80.5634V67.2042C80.5634 67.3989 80.5715 67.5572 80.5877 67.6789C80.6121 67.8006 80.6689 67.9101 80.7581 68.0075C80.8555 68.1049 80.9894 68.1536 81.1598 68.1536C81.3789 68.1536 81.6548 68.0765 81.9875 67.9223L82.1579 69.0908C81.7116 69.3017 81.2328 69.4072 80.7216 69.4072C79.5938 69.4072 79.0298 68.8149 79.0298 67.6302V63.8814H78.19V62.7859H79.0298V61.7027L80.5634 60.9602V62.7859H82.024V63.8814Z" fill="white"/>
<path d="M83.5274 64.0883L83.3448 62.9563C83.929 62.7616 84.5984 62.6642 85.3531 62.6642C86.2456 62.6642 86.8786 62.8671 87.2518 63.2728C87.6251 63.6704 87.8117 64.4007 87.8117 65.4637V67.7519C87.8117 68.0927 87.9334 68.2631 88.1768 68.2631C88.2904 68.2631 88.4203 68.2347 88.5663 68.1779L88.6759 69.2003C88.3675 69.3301 88.0227 69.395 87.6413 69.395C87.0571 69.395 86.7 69.1476 86.5702 68.6526C86.0428 69.1476 85.4302 69.395 84.7323 69.395C84.1075 69.395 83.6288 69.2044 83.2961 68.823C82.9715 68.4416 82.8092 67.9548 82.8092 67.3624C82.8092 65.8613 83.645 65.1107 85.3166 65.1107C85.6492 65.1107 85.9941 65.1513 86.3511 65.2324V64.9525C86.3511 64.1978 85.9251 63.8205 85.0731 63.8205C84.6106 63.8205 84.0954 63.9098 83.5274 64.0883ZM86.3511 67.691V66.194C86.0752 66.0966 85.8156 66.0479 85.5722 66.0479C84.7364 66.0479 84.3185 66.4414 84.3185 67.2285C84.3185 67.545 84.3915 67.7965 84.5376 67.9832C84.6836 68.1617 84.8987 68.2509 85.1827 68.2509C85.6208 68.2509 86.0103 68.0643 86.3511 67.691Z" fill="white"/>
<path d="M89.4857 67.5328V60.5221H91.0071V67.3137C91.0071 67.6058 91.0517 67.8168 91.141 67.9466C91.2383 68.0765 91.3966 68.1414 91.6157 68.1414C91.8672 68.1414 92.1431 68.0684 92.4433 67.9223L92.6259 69.0908C92.1877 69.3017 91.709 69.4072 91.1897 69.4072C90.5567 69.4072 90.1145 69.249 89.863 68.9325C89.6114 68.608 89.4857 68.1414 89.4857 67.5328Z" fill="white"/>
</svg>
