<svg width="48" height="48" viewBox="0 0 48 48" fill="none" xmlns="http://www.w3.org/2000/svg">
<path fill-rule="evenodd" clip-rule="evenodd" d="M12.5 13L6 31V32.5H19V31L12.5 13Z" stroke="#00662E" stroke-width="1.5" stroke-linecap="round" stroke-linejoin="round"/>
<path d="M20 32.9636V31H5V32.9636C5 32.9636 4.99999 39 12.5 39C20 39 20 32.9636 20 32.9636Z" fill="#00883E"/>
<path d="M17 32.9634V30.9998H5.00003C5.00003 30.9998 4.99994 30.4269 5.00003 32.9634C5.00012 35.5 7.00003 39 11.5 38.9998C16.7543 39.0001 17 34 17 32.9634Z" fill="#00AB4E"/>
<path fill-rule="evenodd" clip-rule="evenodd" d="M35.5 13L29 31V32.5H42V31L35.5 13Z" stroke="#00662E" stroke-width="1.5" stroke-linecap="round" stroke-linejoin="round"/>
<path d="M43 32.9636V31H28V32.9636C28 32.9636 28 39 35.5 39C43 39 43 32.9636 43 32.9636Z" fill="#00883E"/>
<path d="M40 32.9634V30.9998H28C28 30.9998 27.9999 30.4269 28 32.9634C28.0001 35.5 30 39 34.5 38.9998C39.7543 39.0001 40 34 40 32.9634Z" fill="#00AB4E"/>
<path d="M8 14.6331C8 14.2465 8.21817 13.8971 8.57109 13.7394C10.7171 12.7799 18.4586 9.5 24 9.5C29.5414 9.5 37.2829 12.7799 39.4289 13.7394C39.7818 13.8971 40 14.2465 40 14.6331V16.4C40 16.9523 39.5523 17.4 39 17.4H37.3028C37.1054 17.4 36.9136 17.3408 36.746 17.2365C33.6729 15.3241 27.9124 14 24 14C19.0581 14 12.28 16.355 9.39313 17.451C8.72541 17.7045 8 17.2118 8 16.4975V14.6331Z" fill="#00883E"/>
<path d="M8 14.6331C8 14.2465 8.21817 13.8971 8.57109 13.7394C10.7171 12.7799 18.4586 9.5 24 9.5C29.505 9.5 35.7426 12.7369 37.5103 13.7201C37.8174 13.891 38 14.2151 38 14.5665V16.3395C38 17.093 37.1939 17.5916 36.5086 17.2785C33.9869 16.1265 28.6961 14 24 14C19.0581 14 12.28 16.355 9.39313 17.451C8.72541 17.7045 8 17.2118 8 16.4975V14.6331Z" fill="#00AB4E"/>
<path fill-rule="evenodd" clip-rule="evenodd" d="M26 11.4995C26 12.881 24.8803 14 23.5 14C22.1197 14 21 12.881 21 11.4995C21 10.119 22.1197 9 23.5 9C24.8803 9 26 10.119 26 11.4995Z" fill="#9BB20E"/>
<path fill-rule="evenodd" clip-rule="evenodd" d="M25 11.4995C25 12.881 23.8803 14 22.5 14C21.1197 14 20 12.881 20 11.4995C20 10.119 21.1197 9 22.5 9C23.8803 9 25 10.119 25 11.4995Z" fill="#BFD730"/>
<path d="M42.5 35C42.5 39.1425 39.1425 42.5 35 42.5C30.8575 42.5 27.5 39.1425 27.5 35C27.5 30.8575 30.8575 27.5 35 27.5C39.1425 27.5 42.5 30.8575 42.5 35Z" fill="#E07E26" stroke="white"/>
<path fill-rule="evenodd" clip-rule="evenodd" d="M31.8447 34.909V37.0763H30.6992V31.5H33.1091C33.724 31.5 34.1889 31.6437 34.5038 31.9311C34.8186 32.2185 34.9761 32.6337 34.9761 33.1768C34.9761 33.5987 34.8657 33.952 34.6451 34.2367C34.4244 34.5215 34.1133 34.7087 33.7116 34.7983C33.9843 34.8721 34.2149 35.0804 34.4034 35.4232L35.2513 37.0763H33.9868L33.0794 35.2966C33.005 35.1595 32.9157 35.0606 32.8116 35C32.7075 34.9394 32.5761 34.909 32.4174 34.909H31.8447ZM31.8298 33.9757H32.9381C33.2703 33.9757 33.5108 33.9137 33.6595 33.7898C33.8083 33.6659 33.8827 33.4721 33.8827 33.2085C33.8827 32.9395 33.8083 32.7444 33.6595 32.6232C33.5108 32.5019 33.2703 32.4412 32.9381 32.4412H31.8298V33.9757ZM36.9472 38.5V36.5226C37.0562 36.7177 37.2112 36.8693 37.412 36.9774C37.6129 37.0855 37.8372 37.1395 38.0852 37.1395C38.4025 37.1395 38.6827 37.0578 38.9257 36.8944C39.1686 36.7309 39.3583 36.4976 39.4947 36.1944C39.631 35.8911 39.6992 35.5392 39.6992 35.1384C39.6992 34.7377 39.631 34.3831 39.4947 34.0746C39.3583 33.7661 39.1674 33.5262 38.9219 33.3548C38.6765 33.1834 38.3976 33.0977 38.0852 33.0977C37.8323 33.0977 37.6042 33.1544 37.4009 33.2678C37.1976 33.3812 37.0414 33.538 36.9323 33.7384V33.1927H35.824V38.5H36.9472ZM37.148 35.9412C37.2918 36.1337 37.4951 36.2299 37.7579 36.2299C38.0207 36.2299 38.224 36.1363 38.3678 35.9492C38.5116 35.762 38.5835 35.4917 38.5835 35.1384C38.5835 34.7798 38.5116 34.5017 38.3678 34.304C38.224 34.1062 38.0207 34.0073 37.7579 34.0073C37.4951 34.0073 37.2918 34.1036 37.148 34.296C37.0042 34.4885 36.9323 34.764 36.9323 35.1226C36.9323 35.4759 37.0042 35.7488 37.148 35.9412Z" fill="white"/>
</svg>
