<svg width="48" height="48" viewBox="0 0 48 48" fill="none" xmlns="http://www.w3.org/2000/svg">
<rect x="8" y="9" width="32" height="30" rx="4" fill="#1868AB"/>
<mask id="mask0" style="mask-type:alpha" maskUnits="userSpaceOnUse" x="8" y="9" width="32" height="30">
<rect x="8" y="9" width="32" height="30" rx="4" fill="white"/>
</mask>
<g mask="url(#mask0)">
<rect x="5" y="9" width="32" height="30" rx="4" fill="#5297D1"/>
</g>
<path fill-rule="evenodd" clip-rule="evenodd" d="M8 13C8 10.7909 9.79086 9 12 9H36C38.2091 9 40 10.7909 40 13V20H8V13Z" fill="#0F5895"/>
<mask id="mask1" style="mask-type:alpha" maskUnits="userSpaceOnUse" x="8" y="9" width="32" height="11">
<path fill-rule="evenodd" clip-rule="evenodd" d="M8 13C8 10.7909 9.79086 9 12 9H36C38.2091 9 40 10.7909 40 13V20H8V13Z" fill="white"/>
</mask>
<g mask="url(#mask1)">
<path fill-rule="evenodd" clip-rule="evenodd" d="M5 13C5 10.7909 6.79086 9 9 9H33C35.2091 9 37 10.7909 37 13V20H5V13Z" fill="#1868AB"/>
</g>
<rect x="13" y="6" width="6" height="9" rx="2" fill="#CC9D3F"/>
<mask id="mask2" style="mask-type:alpha" maskUnits="userSpaceOnUse" x="13" y="6" width="6" height="9">
<rect x="13" y="6" width="6" height="9" rx="2" fill="white"/>
</mask>
<g mask="url(#mask2)">
<rect x="12" y="6" width="6" height="9" rx="2" fill="#FFC54F"/>
</g>
<rect x="27" y="6" width="6" height="9" rx="2" fill="#CC9D3F"/>
<mask id="mask3" style="mask-type:alpha" maskUnits="userSpaceOnUse" x="27" y="6" width="6" height="9">
<rect x="27" y="6" width="6" height="9" rx="2" fill="white"/>
</mask>
<g mask="url(#mask3)">
<rect x="26" y="6" width="6" height="9" rx="2" fill="#FFC54F"/>
</g>
<circle cx="15.5" cy="27.5" r="3.5" fill="white"/>
<circle cx="25.5" cy="27.5" r="3.5" fill="white"/>
<path d="M42.5 35C42.5 39.1425 39.1425 42.5 35 42.5C30.8575 42.5 27.5 39.1425 27.5 35C27.5 30.8575 30.8575 27.5 35 27.5C39.1425 27.5 42.5 30.8575 42.5 35Z" fill="#E07E26" stroke="white"/>
<path fill-rule="evenodd" clip-rule="evenodd" d="M31.8447 34.909V37.0763H30.6992V31.5H33.1091C33.724 31.5 34.1889 31.6437 34.5038 31.9311C34.8186 32.2185 34.9761 32.6337 34.9761 33.1768C34.9761 33.5987 34.8657 33.952 34.6451 34.2367C34.4244 34.5215 34.1133 34.7087 33.7116 34.7983C33.9843 34.8721 34.2149 35.0804 34.4034 35.4232L35.2513 37.0763H33.9868L33.0794 35.2966C33.005 35.1595 32.9157 35.0606 32.8116 35C32.7075 34.9394 32.5761 34.909 32.4174 34.909H31.8447ZM31.8298 33.9757H32.9381C33.2703 33.9757 33.5108 33.9137 33.6595 33.7898C33.8083 33.6659 33.8827 33.4721 33.8827 33.2085C33.8827 32.9395 33.8083 32.7444 33.6595 32.6232C33.5108 32.5019 33.2703 32.4412 32.9381 32.4412H31.8298V33.9757ZM36.9472 38.5V36.5226C37.0562 36.7177 37.2112 36.8693 37.412 36.9774C37.6129 37.0855 37.8372 37.1395 38.0852 37.1395C38.4025 37.1395 38.6827 37.0578 38.9257 36.8944C39.1686 36.7309 39.3583 36.4976 39.4947 36.1944C39.631 35.8911 39.6992 35.5392 39.6992 35.1384C39.6992 34.7377 39.631 34.3831 39.4947 34.0746C39.3583 33.7661 39.1674 33.5262 38.9219 33.3548C38.6765 33.1834 38.3976 33.0977 38.0852 33.0977C37.8323 33.0977 37.6042 33.1544 37.4009 33.2678C37.1976 33.3812 37.0414 33.538 36.9323 33.7384V33.1927H35.824V38.5H36.9472ZM37.148 35.9412C37.2918 36.1337 37.4951 36.2299 37.7579 36.2299C38.0207 36.2299 38.224 36.1363 38.3678 35.9492C38.5116 35.762 38.5835 35.4917 38.5835 35.1384C38.5835 34.7798 38.5116 34.5017 38.3678 34.304C38.224 34.1062 38.0207 34.0073 37.7579 34.0073C37.4951 34.0073 37.2918 34.1036 37.148 34.296C37.0042 34.4885 36.9323 34.764 36.9323 35.1226C36.9323 35.4759 37.0042 35.7488 37.148 35.9412Z" fill="white"/>
</svg>
